<svg width="154" height="47" viewBox="0 0 154 47" fill="none" xmlns="http://www.w3.org/2000/svg">
<path d="M62.7895 37V14.32C62.7895 13 62.9935 11.86 63.4015 10.9C63.8095 9.94 64.4335 9.196 65.2735 8.668C66.1135 8.14 67.1815 7.876 68.4775 7.876C69.0775 7.876 69.6535 7.936 70.2055 8.056C70.7815 8.176 71.2975 8.32 71.7535 8.488L71.0335 11.044C70.3135 10.684 69.5815 10.504 68.8375 10.504C67.9015 10.504 67.2055 10.828 66.7495 11.476C66.2935 12.124 66.0655 13.084 66.0655 14.356V37H62.7895ZM60.1255 20.116V17.632L62.9335 17.452H70.2055V20.116H60.1255ZM77.5425 37.468C76.4625 37.468 75.4905 37.252 74.6265 36.82C73.7625 36.388 73.0785 35.764 72.5745 34.948C72.0945 34.108 71.8545 33.1 71.8545 31.924C71.8545 29.788 72.8025 28.156 74.6985 27.028C76.6185 25.876 79.6665 25.072 83.8425 24.616C83.8425 23.776 83.7225 22.984 83.4825 22.24C83.2665 21.472 82.8705 20.86 82.2945 20.404C81.7185 19.924 80.8905 19.684 79.8105 19.684C78.6825 19.684 77.6145 19.912 76.6065 20.368C75.6225 20.8 74.7345 21.268 73.9425 21.772L72.6825 19.504C73.2825 19.12 73.9785 18.736 74.7705 18.352C75.5625 17.944 76.4265 17.608 77.3625 17.344C78.2985 17.08 79.2945 16.948 80.3505 16.948C81.9345 16.948 83.2185 17.284 84.2025 17.956C85.2105 18.628 85.9425 19.564 86.3985 20.764C86.8785 21.94 87.1185 23.344 87.1185 24.976V37H84.4185L84.1305 34.66H84.0225C83.1105 35.428 82.1025 36.088 80.9985 36.64C79.9185 37.192 78.7665 37.468 77.5425 37.468ZM78.4785 34.804C79.4145 34.804 80.3025 34.588 81.1425 34.156C82.0065 33.724 82.9065 33.088 83.8425 32.248V26.812C81.6585 27.052 79.9185 27.4 78.6225 27.856C77.3265 28.288 76.4025 28.828 75.8505 29.476C75.2985 30.1 75.0225 30.844 75.0225 31.708C75.0225 32.836 75.3585 33.64 76.0305 34.12C76.7025 34.576 77.5185 34.804 78.4785 34.804ZM99.9156 46C98.3316 46 96.9276 45.796 95.7036 45.388C94.4796 44.98 93.5316 44.38 92.8596 43.588C92.1876 42.82 91.8516 41.884 91.8516 40.78C91.8516 39.94 92.1036 39.124 92.6076 38.332C93.1116 37.564 93.8196 36.904 94.7316 36.352V36.172C94.2276 35.86 93.8076 35.44 93.4716 34.912C93.1356 34.384 92.9676 33.736 92.9676 32.968C92.9676 32.152 93.1956 31.432 93.6516 30.808C94.1316 30.184 94.6236 29.692 95.1276 29.332V29.188C94.4796 28.684 93.8916 27.976 93.3636 27.064C92.8356 26.152 92.5716 25.108 92.5716 23.932C92.5716 22.492 92.9076 21.256 93.5796 20.224C94.2516 19.168 95.1396 18.364 96.2436 17.812C97.3716 17.236 98.5836 16.948 99.8796 16.948C100.456 16.948 100.972 16.996 101.428 17.092C101.908 17.188 102.316 17.308 102.652 17.452H109.456V19.972H105.46C105.94 20.428 106.324 21.004 106.612 21.7C106.9 22.396 107.044 23.164 107.044 24.004C107.044 25.396 106.72 26.608 106.072 27.64C105.448 28.648 104.596 29.428 103.516 29.98C102.436 30.532 101.224 30.808 99.8796 30.808C99.4236 30.808 98.9316 30.748 98.4036 30.628C97.8996 30.508 97.4316 30.34 96.9996 30.124C96.6396 30.412 96.3396 30.736 96.0996 31.096C95.8596 31.456 95.7396 31.912 95.7396 32.464C95.7396 33.064 95.9796 33.568 96.4596 33.976C96.9396 34.384 97.8396 34.588 99.1596 34.588H103.012C105.268 34.588 106.96 34.96 108.088 35.704C109.24 36.448 109.816 37.624 109.816 39.232C109.816 40.432 109.408 41.548 108.592 42.58C107.776 43.612 106.624 44.44 105.136 45.064C103.672 45.688 101.932 46 99.9156 46ZM99.8796 28.576C100.648 28.576 101.344 28.384 101.968 28C102.616 27.616 103.12 27.076 103.48 26.38C103.864 25.684 104.056 24.868 104.056 23.932C104.056 22.972 103.864 22.156 103.48 21.484C103.12 20.788 102.628 20.26 102.004 19.9C101.38 19.54 100.672 19.36 99.8796 19.36C99.1356 19.36 98.4396 19.54 97.7916 19.9C97.1676 20.26 96.6636 20.776 96.2796 21.448C95.9196 22.12 95.7396 22.948 95.7396 23.932C95.7396 24.868 95.9316 25.684 96.3156 26.38C96.6996 27.076 97.2036 27.616 97.8276 28C98.4516 28.384 99.1356 28.576 99.8796 28.576ZM100.384 43.732C101.632 43.732 102.712 43.54 103.624 43.156C104.56 42.772 105.28 42.268 105.784 41.644C106.312 41.044 106.576 40.42 106.576 39.772C106.576 38.836 106.24 38.188 105.568 37.828C104.896 37.468 103.912 37.288 102.616 37.288H99.2316C98.8716 37.288 98.4636 37.264 98.0076 37.216C97.5756 37.192 97.1436 37.12 96.7116 37C96.0156 37.48 95.5116 38.008 95.1996 38.584C94.8876 39.184 94.7316 39.76 94.7316 40.312C94.7316 41.344 95.2236 42.172 96.2076 42.796C97.2156 43.42 98.6076 43.732 100.384 43.732ZM120.611 37.468C119.027 37.468 117.539 37.072 116.147 36.28C114.755 35.464 113.639 34.3 112.799 32.788C111.983 31.252 111.575 29.404 111.575 27.244C111.575 25.06 111.983 23.212 112.799 21.7C113.639 20.164 114.755 18.988 116.147 18.172C117.539 17.356 119.027 16.948 120.611 16.948C121.811 16.948 122.951 17.176 124.031 17.632C125.135 18.088 126.107 18.76 126.947 19.648C127.787 20.536 128.447 21.616 128.927 22.888C129.407 24.16 129.647 25.612 129.647 27.244C129.647 29.404 129.227 31.252 128.387 32.788C127.547 34.3 126.443 35.464 125.075 36.28C123.707 37.072 122.219 37.468 120.611 37.468ZM120.611 34.732C121.739 34.732 122.723 34.42 123.563 33.796C124.427 33.172 125.099 32.296 125.579 31.168C126.059 30.04 126.299 28.732 126.299 27.244C126.299 25.732 126.059 24.412 125.579 23.284C125.099 22.156 124.427 21.28 123.563 20.656C122.723 20.032 121.739 19.72 120.611 19.72C119.483 19.72 118.487 20.032 117.623 20.656C116.783 21.28 116.123 22.156 115.643 23.284C115.187 24.412 114.959 25.732 114.959 27.244C114.959 28.732 115.187 30.04 115.643 31.168C116.123 32.296 116.783 33.172 117.623 33.796C118.487 34.42 119.483 34.732 120.611 34.732ZM134.847 37V17.452H137.547L137.871 20.296H137.943C138.879 19.36 139.863 18.568 140.895 17.92C141.951 17.272 143.151 16.948 144.495 16.948C146.559 16.948 148.071 17.608 149.031 18.928C149.991 20.224 150.471 22.12 150.471 24.616V37H147.195V25.048C147.195 23.2 146.895 21.868 146.295 21.052C145.719 20.236 144.783 19.828 143.487 19.828C142.479 19.828 141.579 20.08 140.787 20.584C139.995 21.088 139.119 21.832 138.159 22.816V37H134.847Z" fill="#333333"/>
<path d="M9.6629 42.0625C10.5395 44.6924 16.1317 46 15.5692 46H2.35041L2.63166 26.5937L8.5379 26.3125C8.5379 26.3125 8.84858 28.2731 9.38166 29.4062C10.7286 32.2694 15.6825 34.2188 15.6825 34.5C15.6825 34.5 13.4325 35.3438 13.0379 35.5937C12.6434 35.8437 10.3234 36.8228 9.6629 38.4062C9.11323 39.7241 9.21138 40.7079 9.6629 42.0625Z" fill="#FF6D33"/>
<path d="M21.7567 19.8437H15.0067C15.5614 16.4997 18.6025 15.0261 20.3504 14.5313C25.8273 12.9809 32.0962 14.0922 33.2879 19.3125C33.8826 21.9174 34.1885 23.585 33.5692 26.3125C32.8982 29.2672 30.8492 30.7952 27.9442 31.6562C26.0893 32.206 22.76 32.2052 20.9129 31.6562C18.4681 30.9296 15.3141 29.1486 15.0067 26.5937H20.9129L21.7567 19.8437Z" fill="#FF6D33"/>
<path d="M2.06916 19.8437H8.81916C8.81916 19.8437 9.72867 15.4824 12.2971 13.0938C14.8326 10.7358 19.5067 10 20.3504 10C21.1942 10 43.4129 9.15625 43.4129 9.15625V1H20.9129L21.7567 7.46875C21.2701 7.28476 18.245 5.92068 15.8504 5.5C13.0378 5.00589 11.3701 5.13396 8.5379 5.5C6.11996 5.8125 3.33732 7.45119 1.9012 10.3125C0.953487 12.2007 0.924782 13.5477 1.05745 15.6563C1.1631 17.3353 2.06916 19.8437 2.06916 19.8437Z" fill="#FF6D33"/>
<path d="M43.1317 13.6563H35.0887C38.745 16.4688 40.7187 22.4063 39.4754 27.4688C38.2322 32.5313 35.5833 35.5937 30.87 37.0312C26.1566 38.4688 22.3192 37.5625 18.3817 37.5625C14.4442 37.5625 14.4442 41.5 18.1004 42.0625C21.7567 42.625 29.2071 42.0914 35.8192 44.3125C37.2694 44.7996 39.4754 45.7188 39.4754 45.7188H43.1317V13.6563Z" fill="#FF6D33"/>
<path d="M9.6629 42.0625C10.5395 44.6924 16.1317 46 15.5692 46H2.35041L2.63166 26.5937L8.5379 26.3125C8.5379 26.3125 8.84858 28.2731 9.38166 29.4062C10.7286 32.2694 15.6825 34.2188 15.6825 34.5C15.6825 34.5 13.4325 35.3438 13.0379 35.5937C12.6434 35.8437 10.3234 36.8228 9.6629 38.4062C9.11323 39.7241 9.21138 40.7079 9.6629 42.0625Z" stroke="#FF6D33"/>
<path d="M21.7567 19.8437H15.0067C15.5614 16.4997 18.6025 15.0261 20.3504 14.5313C25.8273 12.9809 32.0962 14.0922 33.2879 19.3125C33.8826 21.9174 34.1885 23.585 33.5692 26.3125C32.8982 29.2672 30.8492 30.7952 27.9442 31.6562C26.0893 32.206 22.76 32.2052 20.9129 31.6562C18.4681 30.9296 15.3141 29.1486 15.0067 26.5937H20.9129L21.7567 19.8437Z" stroke="#FF6D33"/>
<path d="M2.06916 19.8437H8.81916C8.81916 19.8437 9.72867 15.4824 12.2971 13.0938C14.8326 10.7358 19.5067 10 20.3504 10C21.1942 10 43.4129 9.15625 43.4129 9.15625V1H20.9129L21.7567 7.46875C21.2701 7.28476 18.245 5.92068 15.8504 5.5C13.0378 5.00589 11.3701 5.13396 8.5379 5.5C6.11996 5.8125 3.33732 7.45119 1.9012 10.3125C0.953487 12.2007 0.924782 13.5477 1.05745 15.6563C1.1631 17.3353 2.06916 19.8437 2.06916 19.8437Z" stroke="#FF6D33"/>
<path d="M43.1317 13.6563H35.0887C38.745 16.4688 40.7187 22.4063 39.4754 27.4688C38.2322 32.5313 35.5833 35.5937 30.87 37.0312C26.1566 38.4688 22.3192 37.5625 18.3817 37.5625C14.4442 37.5625 14.4442 41.5 18.1004 42.0625C21.7567 42.625 29.2071 42.0914 35.8192 44.3125C37.2694 44.7996 39.4754 45.7188 39.4754 45.7188H43.1317V13.6563Z" stroke="#FF6D33"/>
</svg>
