<svg width="95" height="94" viewBox="0 0 95 94" fill="none" xmlns="http://www.w3.org/2000/svg">
<path d="M35.0199 42.0062C35.8959 44.6324 41.4844 45.9383 40.9222 45.9383H27.7122L27.9933 26.5586L33.8956 26.2778C33.8956 26.2778 34.2061 28.2356 34.7388 29.3673C36.0848 32.2265 41.0355 34.1732 41.0355 34.454C41.0355 34.454 38.7869 35.2966 38.3927 35.5463C37.9984 35.7959 35.6799 36.7737 35.0199 38.3549C34.4706 39.6709 34.5686 40.6534 35.0199 42.0062Z" fill="#FF6D33"/>
<path d="M47.1057 19.8179H40.3601C40.9145 16.4784 43.9536 15.0068 45.7004 14.5127C51.1737 12.9644 57.4384 14.0742 58.6294 19.2874C59.2236 21.8887 59.5294 23.554 58.9104 26.2778C58.2399 29.2284 56.1922 30.7543 53.2891 31.6142C51.4355 32.1632 48.1083 32.1624 46.2625 31.6142C43.8193 30.8886 40.6673 29.11 40.3601 26.5586H46.2625L47.1057 19.8179Z" fill="#FF6D33"/>
<path d="M27.4311 19.8179H34.1767C34.1767 19.8179 35.0856 15.4626 37.6524 13.0772C40.1862 10.7224 44.8572 9.98765 45.7004 9.98766C46.5436 9.98766 68.7477 9.14506 68.7477 9.14506V1H46.2625L47.1057 7.45988C46.6194 7.27614 43.5964 5.91393 41.2033 5.49383C38.3925 5.00039 36.7259 5.12829 33.8956 5.49383C31.4793 5.8059 28.6985 7.44234 27.2633 10.2997C26.3162 12.1854 26.2875 13.5305 26.4201 15.6361C26.5257 17.3129 27.4311 19.8179 27.4311 19.8179Z" fill="#FF6D33"/>
<path d="M68.4666 13.6389H60.429C64.0828 16.4475 66.0552 22.3769 64.8128 27.4324C63.5703 32.488 60.9232 35.5463 56.213 36.9818C51.5027 38.4174 47.6678 37.5123 43.7329 37.5123C39.798 37.5123 39.798 41.4444 43.4518 42.0062C47.1057 42.5679 54.5512 42.0351 61.1589 44.2531C62.6082 44.7396 64.8128 45.6574 64.8128 45.6574H68.4666V13.6389Z" fill="#FF6D33"/>
<path d="M35.0199 42.0062C35.8959 44.6324 41.4844 45.9383 40.9222 45.9383H27.7122L27.9933 26.5586L33.8956 26.2778C33.8956 26.2778 34.2061 28.2356 34.7388 29.3673C36.0848 32.2265 41.0355 34.1732 41.0355 34.454C41.0355 34.454 38.7869 35.2966 38.3927 35.5463C37.9984 35.7959 35.6799 36.7737 35.0199 38.3549C34.4706 39.6709 34.5686 40.6534 35.0199 42.0062Z" stroke="#FF6D33"/>
<path d="M47.1057 19.8179H40.3601C40.9145 16.4784 43.9536 15.0068 45.7004 14.5127C51.1737 12.9644 57.4384 14.0742 58.6294 19.2874C59.2236 21.8887 59.5294 23.554 58.9104 26.2778C58.2399 29.2284 56.1922 30.7543 53.2891 31.6142C51.4355 32.1632 48.1083 32.1624 46.2625 31.6142C43.8193 30.8886 40.6673 29.11 40.3601 26.5586H46.2625L47.1057 19.8179Z" stroke="#FF6D33"/>
<path d="M27.4311 19.8179H34.1767C34.1767 19.8179 35.0856 15.4626 37.6524 13.0772C40.1862 10.7224 44.8572 9.98765 45.7004 9.98766C46.5436 9.98766 68.7477 9.14506 68.7477 9.14506V1H46.2625L47.1057 7.45988C46.6194 7.27614 43.5964 5.91393 41.2033 5.49383C38.3925 5.00039 36.7259 5.12829 33.8956 5.49383C31.4793 5.8059 28.6985 7.44234 27.2633 10.2997C26.3162 12.1854 26.2875 13.5305 26.4201 15.6361C26.5257 17.3129 27.4311 19.8179 27.4311 19.8179Z" stroke="#FF6D33"/>
<path d="M68.4666 13.6389H60.429C64.0828 16.4475 66.0552 22.3769 64.8128 27.4324C63.5703 32.488 60.9232 35.5463 56.213 36.9818C51.5027 38.4174 47.6678 37.5123 43.7329 37.5123C39.798 37.5123 39.798 41.4444 43.4518 42.0062C47.1057 42.5679 54.5512 42.0351 61.1589 44.2531C62.6082 44.7396 64.8128 45.6574 64.8128 45.6574H68.4666V13.6389Z" stroke="#FF6D33"/>
<path d="M3.852 84.7469V62.0669C3.852 60.7469 4.056 59.6069 4.464 58.6469C4.872 57.6869 5.496 56.9429 6.336 56.4149C7.176 55.8869 8.244 55.6229 9.54 55.6229C10.14 55.6229 10.716 55.6829 11.268 55.8029C11.844 55.9229 12.36 56.0669 12.816 56.2349L12.096 58.7909C11.376 58.4309 10.644 58.2509 9.9 58.2509C8.964 58.2509 8.268 58.5749 7.812 59.2229C7.356 59.8709 7.128 60.8309 7.128 62.1029V84.7469H3.852ZM1.188 67.8629V65.3789L3.996 65.1989H11.268V67.8629H1.188ZM18.605 85.2149C17.525 85.2149 16.553 84.9989 15.689 84.5669C14.825 84.1349 14.141 83.5109 13.637 82.6949C13.157 81.8549 12.917 80.8469 12.917 79.6709C12.917 77.5349 13.865 75.9029 15.761 74.7749C17.681 73.6229 20.729 72.8189 24.905 72.3629C24.905 71.5229 24.785 70.7309 24.545 69.9869C24.329 69.2189 23.933 68.6069 23.357 68.1509C22.781 67.6709 21.953 67.4309 20.873 67.4309C19.745 67.4309 18.677 67.6589 17.669 68.1149C16.685 68.5469 15.797 69.0149 15.005 69.5189L13.745 67.2509C14.345 66.8669 15.041 66.4829 15.833 66.0989C16.625 65.6909 17.489 65.3549 18.425 65.0909C19.361 64.8269 20.357 64.6949 21.413 64.6949C22.997 64.6949 24.281 65.0309 25.265 65.7029C26.273 66.3749 27.005 67.3109 27.461 68.5109C27.941 69.6869 28.181 71.0909 28.181 72.7229V84.7469H25.481L25.193 82.4069H25.085C24.173 83.1749 23.165 83.8349 22.061 84.3869C20.981 84.9389 19.829 85.2149 18.605 85.2149ZM19.541 82.5509C20.477 82.5509 21.365 82.3349 22.205 81.9029C23.069 81.4709 23.969 80.8349 24.905 79.9949V74.5589C22.721 74.7989 20.981 75.1469 19.685 75.6029C18.389 76.0349 17.465 76.5749 16.913 77.2229C16.361 77.8469 16.085 78.5909 16.085 79.4549C16.085 80.5829 16.421 81.3869 17.093 81.8669C17.765 82.3229 18.581 82.5509 19.541 82.5509ZM40.9781 93.7469C39.3941 93.7469 37.9901 93.5429 36.7661 93.1349C35.5421 92.7269 34.5941 92.1269 33.9221 91.3349C33.2501 90.5669 32.9141 89.6309 32.9141 88.5269C32.9141 87.6869 33.1661 86.8709 33.6701 86.0789C34.1741 85.3109 34.8821 84.6509 35.7941 84.0989V83.9189C35.2901 83.6069 34.8701 83.1869 34.5341 82.6589C34.1981 82.1309 34.0301 81.4829 34.0301 80.7149C34.0301 79.8989 34.2581 79.1789 34.7141 78.5549C35.1941 77.9309 35.6861 77.4389 36.1901 77.0789V76.9349C35.5421 76.4309 34.9541 75.7229 34.4261 74.8109C33.8981 73.8989 33.6341 72.8549 33.6341 71.6789C33.6341 70.2389 33.9701 69.0029 34.6421 67.9709C35.3141 66.9149 36.2021 66.1109 37.3061 65.5589C38.4341 64.9829 39.6461 64.6949 40.9421 64.6949C41.5181 64.6949 42.0341 64.7429 42.4901 64.8389C42.9701 64.9349 43.3781 65.0549 43.7141 65.1989H50.5181V67.7189H46.5221C47.0021 68.1749 47.3861 68.7509 47.6741 69.4469C47.9621 70.1429 48.1061 70.9109 48.1061 71.7509C48.1061 73.1429 47.7821 74.3549 47.1341 75.3869C46.5101 76.3949 45.6581 77.1749 44.5781 77.7269C43.4981 78.2789 42.2861 78.5549 40.9421 78.5549C40.4861 78.5549 39.9941 78.4949 39.4661 78.3749C38.9621 78.2549 38.4941 78.0869 38.0621 77.8709C37.7021 78.1589 37.4021 78.4829 37.1621 78.8429C36.9221 79.2029 36.8021 79.6589 36.8021 80.2109C36.8021 80.8109 37.0421 81.3149 37.5221 81.7229C38.0021 82.1309 38.9021 82.3349 40.2221 82.3349H44.0741C46.3301 82.3349 48.0221 82.7069 49.1501 83.4509C50.3021 84.1949 50.8781 85.3709 50.8781 86.9789C50.8781 88.1789 50.4701 89.2949 49.6541 90.3269C48.8381 91.3589 47.6861 92.1869 46.1981 92.8109C44.7341 93.4349 42.9941 93.7469 40.9781 93.7469ZM40.9421 76.3229C41.7101 76.3229 42.4061 76.1309 43.0301 75.7469C43.6781 75.3629 44.1821 74.8229 44.5421 74.1269C44.9261 73.4309 45.1181 72.6149 45.1181 71.6789C45.1181 70.7189 44.9261 69.9029 44.5421 69.2309C44.1821 68.5349 43.6901 68.0069 43.0661 67.6469C42.4421 67.2869 41.7341 67.1069 40.9421 67.1069C40.1981 67.1069 39.5021 67.2869 38.8541 67.6469C38.2301 68.0069 37.7261 68.5229 37.3421 69.1949C36.9821 69.8669 36.8021 70.6949 36.8021 71.6789C36.8021 72.6149 36.9941 73.4309 37.3781 74.1269C37.7621 74.8229 38.2661 75.3629 38.8901 75.7469C39.5141 76.1309 40.1981 76.3229 40.9421 76.3229ZM41.4461 91.4789C42.6941 91.4789 43.7741 91.2869 44.6861 90.9029C45.6221 90.5189 46.3421 90.0149 46.8461 89.3909C47.3741 88.7909 47.6381 88.1669 47.6381 87.5189C47.6381 86.5829 47.3021 85.9349 46.6301 85.5749C45.9581 85.2149 44.9741 85.0349 43.6781 85.0349H40.2941C39.9341 85.0349 39.5261 85.0109 39.0701 84.9629C38.6381 84.9389 38.2061 84.8669 37.7741 84.7469C37.0781 85.2269 36.5741 85.7549 36.2621 86.3309C35.9501 86.9309 35.7941 87.5069 35.7941 88.0589C35.7941 89.0909 36.2861 89.9189 37.2701 90.5429C38.2781 91.1669 39.6701 91.4789 41.4461 91.4789ZM61.6736 85.2149C60.0896 85.2149 58.6016 84.8189 57.2096 84.0269C55.8176 83.2109 54.7016 82.0469 53.8616 80.5349C53.0456 78.9989 52.6376 77.1509 52.6376 74.9909C52.6376 72.8069 53.0456 70.9589 53.8616 69.4469C54.7016 67.9109 55.8176 66.7349 57.2096 65.9189C58.6016 65.1029 60.0896 64.6949 61.6736 64.6949C62.8736 64.6949 64.0136 64.9229 65.0936 65.3789C66.1976 65.8349 67.1696 66.5069 68.0096 67.3949C68.8496 68.2829 69.5096 69.3629 69.9896 70.6349C70.4696 71.9069 70.7096 73.3589 70.7096 74.9909C70.7096 77.1509 70.2896 78.9989 69.4496 80.5349C68.6096 82.0469 67.5056 83.2109 66.1376 84.0269C64.7696 84.8189 63.2816 85.2149 61.6736 85.2149ZM61.6736 82.4789C62.8016 82.4789 63.7856 82.1669 64.6256 81.5429C65.4896 80.9189 66.1616 80.0429 66.6416 78.9149C67.1216 77.7869 67.3616 76.4789 67.3616 74.9909C67.3616 73.4789 67.1216 72.1589 66.6416 71.0309C66.1616 69.9029 65.4896 69.0269 64.6256 68.4029C63.7856 67.7789 62.8016 67.4669 61.6736 67.4669C60.5456 67.4669 59.5496 67.7789 58.6856 68.4029C57.8456 69.0269 57.1856 69.9029 56.7056 71.0309C56.2496 72.1589 56.0216 73.4789 56.0216 74.9909C56.0216 76.4789 56.2496 77.7869 56.7056 78.9149C57.1856 80.0429 57.8456 80.9189 58.6856 81.5429C59.5496 82.1669 60.5456 82.4789 61.6736 82.4789ZM75.9097 84.7469V65.1989H78.6097L78.9337 68.0429H79.0057C79.9417 67.1069 80.9257 66.3149 81.9577 65.6669C83.0137 65.0189 84.2137 64.6949 85.5577 64.6949C87.6217 64.6949 89.1337 65.3549 90.0937 66.6749C91.0537 67.9709 91.5337 69.8669 91.5337 72.3629V84.7469H88.2577V72.7949C88.2577 70.9469 87.9577 69.6149 87.3577 68.7989C86.7817 67.9829 85.8457 67.5749 84.5497 67.5749C83.5417 67.5749 82.6417 67.8269 81.8497 68.3309C81.0577 68.8349 80.1817 69.5789 79.2217 70.5629V84.7469H75.9097Z" fill="#333333"/>
</svg>
