<svg width="45" height="47" viewBox="0 0 45 47" fill="none" xmlns="http://www.w3.org/2000/svg">
<path d="M9.95636 42.0625C10.833 44.6924 16.4251 46 15.8626 46H2.64386L2.92511 26.5937L8.83136 26.3125C8.83136 26.3125 9.14203 28.2731 9.67511 29.4062C11.022 32.2694 15.9759 34.2188 15.9759 34.5C15.9759 34.5 13.7259 35.3438 13.3314 35.5937C12.9368 35.8437 10.6168 36.8228 9.95636 38.4062C9.40669 39.7241 9.50483 40.7079 9.95636 42.0625Z" fill="#263735"/>
<path d="M22.0501 19.8437H15.3001C15.8548 16.4997 18.8959 15.0261 20.6439 14.5313C26.1208 12.9809 32.3897 14.0922 33.5814 19.3125C34.176 21.9174 34.482 23.585 33.8626 26.3125C33.1917 29.2672 31.1426 30.7952 28.2376 31.6562C26.3828 32.206 23.0534 32.2052 21.2064 31.6562C18.7616 30.9296 15.6075 29.1486 15.3001 26.5937H21.2064L22.0501 19.8437Z" fill="#263735"/>
<path d="M2.36261 19.8437H9.11261C9.11261 19.8437 10.0221 15.4824 12.5906 13.0938C15.126 10.7358 19.8001 10 20.6439 10C21.4876 10 43.7064 9.15625 43.7064 9.15625V1H21.2064L22.0501 7.46875C21.5636 7.28476 18.5385 5.92068 16.1439 5.5C13.3312 5.00589 11.6635 5.13396 8.83136 5.5C6.41341 5.8125 3.63078 7.45119 2.19466 10.3125C1.24694 12.2007 1.21824 13.5477 1.35091 15.6563C1.45655 17.3353 2.36261 19.8437 2.36261 19.8437Z" fill="#263735"/>
<path d="M43.4251 13.6563H35.3822C39.0384 16.4688 41.0121 22.4063 39.7689 27.4688C38.5256 32.5313 35.8768 35.5937 31.1634 37.0312C26.4501 38.4688 22.6126 37.5625 18.6751 37.5625C14.7376 37.5625 14.7376 41.5 18.3939 42.0625C22.0501 42.625 29.5005 42.0914 36.1126 44.3125C37.5628 44.7996 39.7689 45.7188 39.7689 45.7188H43.4251V13.6563Z" fill="#263735"/>
<path d="M9.95636 42.0625C10.833 44.6924 16.4251 46 15.8626 46H2.64386L2.92511 26.5937L8.83136 26.3125C8.83136 26.3125 9.14203 28.2731 9.67511 29.4062C11.022 32.2694 15.9759 34.2188 15.9759 34.5C15.9759 34.5 13.7259 35.3438 13.3314 35.5937C12.9368 35.8437 10.6168 36.8228 9.95636 38.4062C9.40669 39.7241 9.50483 40.7079 9.95636 42.0625Z" stroke="#263735"/>
<path d="M22.0501 19.8437H15.3001C15.8548 16.4997 18.8959 15.0261 20.6439 14.5313C26.1208 12.9809 32.3897 14.0922 33.5814 19.3125C34.176 21.9174 34.482 23.585 33.8626 26.3125C33.1917 29.2672 31.1426 30.7952 28.2376 31.6562C26.3828 32.206 23.0534 32.2052 21.2064 31.6562C18.7616 30.9296 15.6075 29.1486 15.3001 26.5937H21.2064L22.0501 19.8437Z" stroke="#263735"/>
<path d="M2.36261 19.8437H9.11261C9.11261 19.8437 10.0221 15.4824 12.5906 13.0938C15.126 10.7358 19.8001 10 20.6439 10C21.4876 10 43.7064 9.15625 43.7064 9.15625V1H21.2064L22.0501 7.46875C21.5636 7.28476 18.5385 5.92068 16.1439 5.5C13.3312 5.00589 11.6635 5.13396 8.83136 5.5C6.41341 5.8125 3.63078 7.45119 2.19466 10.3125C1.24694 12.2007 1.21824 13.5477 1.35091 15.6563C1.45655 17.3353 2.36261 19.8437 2.36261 19.8437Z" stroke="#263735"/>
<path d="M43.4251 13.6563H35.3822C39.0384 16.4688 41.0121 22.4063 39.7689 27.4688C38.5256 32.5313 35.8768 35.5937 31.1634 37.0312C26.4501 38.4688 22.6126 37.5625 18.6751 37.5625C14.7376 37.5625 14.7376 41.5 18.3939 42.0625C22.0501 42.625 29.5005 42.0914 36.1126 44.3125C37.5628 44.7996 39.7689 45.7188 39.7689 45.7188H43.4251V13.6563Z" stroke="#263735"/>
</svg>
