<svg width="44" height="47" viewBox="0 0 44 47" fill="none" xmlns="http://www.w3.org/2000/svg">
<path d="M9.6629 42.0625C10.5395 44.6924 16.1317 46 15.5692 46H2.35041L2.63166 26.5937L8.5379 26.3125C8.5379 26.3125 8.84858 28.2731 9.38166 29.4062C10.7286 32.2694 15.6825 34.2188 15.6825 34.5C15.6825 34.5 13.4325 35.3438 13.0379 35.5937C12.6434 35.8437 10.3234 36.8228 9.6629 38.4062C9.11323 39.7241 9.21138 40.7079 9.6629 42.0625Z" fill="#FF6D33"/>
<path d="M21.7567 19.8437H15.0067C15.5614 16.4997 18.6025 15.0261 20.3504 14.5313C25.8273 12.9809 32.0962 14.0922 33.2879 19.3125C33.8826 21.9174 34.1885 23.585 33.5692 26.3125C32.8982 29.2672 30.8492 30.7952 27.9442 31.6562C26.0893 32.206 22.76 32.2052 20.9129 31.6562C18.4681 30.9296 15.3141 29.1486 15.0067 26.5937H20.9129L21.7567 19.8437Z" fill="#FF6D33"/>
<path d="M2.06916 19.8437H8.81916C8.81916 19.8437 9.72867 15.4824 12.2971 13.0938C14.8326 10.7358 19.5067 10 20.3504 10C21.1942 10 43.4129 9.15625 43.4129 9.15625V1H20.9129L21.7567 7.46875C21.2701 7.28476 18.245 5.92068 15.8504 5.5C13.0378 5.00589 11.3701 5.13396 8.5379 5.5C6.11996 5.8125 3.33732 7.45119 1.9012 10.3125C0.953487 12.2007 0.924782 13.5477 1.05745 15.6563C1.1631 17.3353 2.06916 19.8437 2.06916 19.8437Z" fill="#FF6D33"/>
<path d="M43.1317 13.6563H35.0887C38.745 16.4688 40.7187 22.4063 39.4754 27.4688C38.2322 32.5313 35.5833 35.5937 30.87 37.0312C26.1566 38.4688 22.3192 37.5625 18.3817 37.5625C14.4442 37.5625 14.4442 41.5 18.1004 42.0625C21.7567 42.625 29.2071 42.0914 35.8192 44.3125C37.2694 44.7996 39.4754 45.7188 39.4754 45.7188H43.1317V13.6563Z" fill="#FF6D33"/>
<path d="M9.6629 42.0625C10.5395 44.6924 16.1317 46 15.5692 46H2.35041L2.63166 26.5937L8.5379 26.3125C8.5379 26.3125 8.84858 28.2731 9.38166 29.4062C10.7286 32.2694 15.6825 34.2188 15.6825 34.5C15.6825 34.5 13.4325 35.3438 13.0379 35.5937C12.6434 35.8437 10.3234 36.8228 9.6629 38.4062C9.11323 39.7241 9.21138 40.7079 9.6629 42.0625Z" stroke="#FF6D33"/>
<path d="M21.7567 19.8437H15.0067C15.5614 16.4997 18.6025 15.0261 20.3504 14.5313C25.8273 12.9809 32.0962 14.0922 33.2879 19.3125C33.8826 21.9174 34.1885 23.585 33.5692 26.3125C32.8982 29.2672 30.8492 30.7952 27.9442 31.6562C26.0893 32.206 22.76 32.2052 20.9129 31.6562C18.4681 30.9296 15.3141 29.1486 15.0067 26.5937H20.9129L21.7567 19.8437Z" stroke="#FF6D33"/>
<path d="M2.06916 19.8437H8.81916C8.81916 19.8437 9.72867 15.4824 12.2971 13.0938C14.8326 10.7358 19.5067 10 20.3504 10C21.1942 10 43.4129 9.15625 43.4129 9.15625V1H20.9129L21.7567 7.46875C21.2701 7.28476 18.245 5.92068 15.8504 5.5C13.0378 5.00589 11.3701 5.13396 8.5379 5.5C6.11996 5.8125 3.33732 7.45119 1.9012 10.3125C0.953487 12.2007 0.924782 13.5477 1.05745 15.6563C1.1631 17.3353 2.06916 19.8437 2.06916 19.8437Z" stroke="#FF6D33"/>
<path d="M43.1317 13.6563H35.0887C38.745 16.4688 40.7187 22.4063 39.4754 27.4688C38.2322 32.5313 35.5833 35.5937 30.87 37.0312C26.1566 38.4688 22.3192 37.5625 18.3817 37.5625C14.4442 37.5625 14.4442 41.5 18.1004 42.0625C21.7567 42.625 29.2071 42.0914 35.8192 44.3125C37.2694 44.7996 39.4754 45.7188 39.4754 45.7188H43.1317V13.6563Z" stroke="#FF6D33"/>
</svg>
